<?xml version="1.0" encoding="UTF-8"?>
<svg width="200" height="200" viewBox="0 0 200 200" xmlns="http://www.w3.org/2000/svg" aria-labelledby="title desc" role="img">
  <title id="title">ainovel Atelier 高级版图标</title>
  <desc id="desc">极简温暖大厂风格纯书本图标：深陶土背景 + 奶油打开书本（完美透视 + UI骨架排版 + 细腻纸张渐变）</desc>

  <defs>
    <linearGradient id="pageGradLeft" x1="0%" y1="0%" x2="100%" y2="0%">
      <stop offset="0%" stop-color="#f8f1df" />
      <stop offset="100%" stop-color="#e6d5b8" />
    </linearGradient>

    <linearGradient id="pageGradRight" x1="0%" y1="0%" x2="100%" y2="0%">
      <stop offset="0%" stop-color="#e6d5b8" />
      <stop offset="100%" stop-color="#f8f1df" />
    </linearGradient>
  </defs>

  <rect x="8" y="8" width="184" height="184" rx="48" fill="#2d1c15" />

  <path
    d="M 40 64 L 100 49 L 100 156 L 40 170 Z"
    fill="url(#pageGradLeft)"
    stroke="#d4b88a"
    stroke-width="12"
    stroke-linejoin="round"
  />

  <path
    d="M 160 64 L 100 49 L 100 156 L 160 170 Z"
    fill="url(#pageGradRight)"
    stroke="#d4b88a"
    stroke-width="12"
    stroke-linejoin="round"
  />

  <line x1="100" y1="49" x2="100" y2="156" stroke="#b89a6c" stroke-width="3" stroke-linecap="round" opacity="0.8" />

  <g stroke="#ba9e78" stroke-width="5" stroke-linecap="round" opacity="0.9">
    <line x1="52" y1="77" x2="88" y2="68" />
    <line x1="52" y1="93" x2="88" y2="84" />
    <line x1="52" y1="109" x2="88" y2="100" />
    <line x1="52" y1="125" x2="76" y2="119" />

    <line x1="124" y1="71" x2="148" y2="77" />
    <line x1="112" y1="84" x2="148" y2="93" />
    <line x1="112" y1="100" x2="148" y2="109" />
    <line x1="112" y1="116" x2="128" y2="120" />
  </g>
</svg>
